# xmcd
#
# Track frame offsets: 
#        150
#        4397
#        30506
#        70080
#        100623
#        124431
#        144053
#        163541
#        175903
#
# Disc length: 2626 seconds
#
# Revision: 0
# Processed by: cddbd v1.5.2PL0 Copyright (c) Steve Scherf et al.
# Submitted via: ExactAudioCopy v0.95b4
#
DISCID=6c0a4009
DTITLE=Barry Mack - Pray to the Father, Pray to the Son.
DYEAR=1998
DGENRE=Blues
TTITLE0=Dusk
TTITLE1=Sundown
TTITLE2=Big Mama's Door
TTITLE3=Goin' Down Slow
TTITLE4=Don't Know My Name
TTITLE5=Travelling Riverside Blues
TTITLE6=Leaving Blues
TTITLE7=I Gotta Roll
TTITLE8=Lay a Prayer
EXTD=
EXTT0=
EXTT1=
EXTT2=
EXTT3=
EXTT4=
EXTT5=
EXTT6=
EXTT7=
EXTT8=
PLAYORDER=
